<svg xmlns="http://www.w3.org/2000/svg" viewBox="0 0 225 225"><defs><style>.cls-1{fill:#fff;}</style></defs><g id="Layer_2" data-name="Layer 2"><g id="Layer_1-2" data-name="Layer 1"><path class="cls-1" d="M207,225H18c-4.08-2.36-8.88-4-12-7.29-2.91-3-4.06-7.74-6-11.71V19C2.27,14.7,3.77,9.65,7,6.32,10,3.25,14.93,2,19,0H206c1.21.45,2.4,1,3.65,1.35,7.3,2.07,11.93,6.76,14,14.06.35,1.23.9,2.39,1.36,3.59V206c-2.4,4.43-4.15,9.45-7.42,13.1C215,222,210.6,223.1,207,225ZM124.67,94.49c-.24-1.56-.39-2.16-.42-2.76-.39-8-2.33-9.89-10.3-9.93-6.49,0-13-.07-19.49,0s-8.78,2.31-8.79,8.64q0,51,0,101.93c0,6.24,2,8.38,8.32,8.55,6.66.17,13.33.09,20,.05,8.32-.05,10.25-2,10.26-10.36,0-17.66-.34-35.33.23-53a39.07,39.07,0,0,1,4.61-15.95c3.45-6.7,10-9.06,17.38-8.25s12.34,4.85,14.3,12a44.74,44.74,0,0,1,1.83,11.22c.19,18.48.08,37,.12,55.46,0,6.28,2,8.6,8.18,8.75q11.49.27,23,0c6.1-.14,8.4-2.51,8.34-8.71-.23-22.8-.21-45.62-1.08-68.41-.41-10.82-3.21-21.41-10.41-30.11C179,79.54,163.17,79.26,146.88,81.3,138,82.41,130.75,86.89,124.67,94.49Zm-54.35,47q0-25.46,0-50.92c0-5.91-2.51-8.61-8.42-8.75-7.32-.17-14.65-.2-22,0-5.56.17-8.15,2.93-8.16,8.56q-.09,50.92,0,101.85c0,6,2.45,8.48,8.51,8.65,7,.19,14,.16,21,0s9.07-2.43,9.08-9.51Q70.34,166.49,70.32,141.52ZM75.4,48.94C75.4,35,64.64,24.12,51,24.16A24.59,24.59,0,1,0,75.4,48.94Z"/></g></g></svg>