<svg xmlns="http://www.w3.org/2000/svg" viewBox="0 0 225 225"><defs><style>.cls-1{fill:#fff;}</style></defs><g id="Layer_2" data-name="Layer 2"><g id="Layer_1-2" data-name="Layer 1"><path class="cls-1" d="M225,107v11c-.7,4.39-1.44,8.78-2.11,13.17-6.76,44.22-42.19,81.68-85.86,90.63-6.3,1.29-12.68,2.14-19,3.2H107c-4.39-.7-8.77-1.44-13.16-2.11-42.6-6.52-79.17-39.66-89.54-81.49-2-8-2.89-16.26-4.3-24.4v-9c.71-4.73,1.43-9.47,2.13-14.2C8.65,49.92,44.7,11.81,88,3.22,94.59,1.91,101.32,1.06,108,0h9l14.19,2.13c42.5,6.43,79.11,39.64,89.53,81.51C222.62,91.31,223.6,99.21,225,107ZM118,94.44c-.57,1.23-.93,1.64-.93,2.06,0,11.32-.15,22.65,0,34,0,1.36,1.25,2.93,2.31,4,4.62,4.67,4.89,11.34.45,15.49a10.16,10.16,0,0,1-14.35-.38c-4.22-4.38-3.54-11,1.2-15.47a8.39,8.39,0,0,0,2.47-5.31c.23-10.32.13-20.65.09-31,0-1.29.18-3.24-.54-3.78-4.71-3.52-7.06-7.78-5.6-13.75.12-.47-.43-1.24-.87-1.68-5-5.06-10-10.09-15.24-15.4C73.17,77.06,59.9,90.38,46.64,103.71c-6.5,6.54-6.52,10.8,0,17.34q28.6,28.63,57.24,57.24c6.62,6.61,10.83,6.65,17.33.16q28.64-28.6,57.24-57.24c6.48-6.49,6.43-10.7-.18-17.33Q163.64,89.2,149,74.55c-9.66-9.66-19.28-19.36-29-28.95-4.55-4.5-9.15-5.22-13.3-1.62-4.84,4.2-9.21,9-14.14,13.81,4.71,4.65,8.77,9.08,13.32,12.93A15.49,15.49,0,0,0,113.51,74c5.32.69,9.44,3.93,9.19,9.15-.19,4,1.41,6.54,4.13,9s5.28,5.08,7.77,7.77a9.28,9.28,0,0,0,7.76,3.42c6-.2,9.75,4.11,9.66,10.18a10.16,10.16,0,0,1-10.1,10.18c-5.51-.07-9.79-4.61-9.88-10.42,0-1.64.49-3.86-.37-4.81C127.4,103.68,122.76,99.27,118,94.44Z"/></g></g></svg>